<?xml version="1.0" standalone="no"?>
<!DOCTYPE svg PUBLIC "-//W3C//DTD SVG 20010904//EN"
 "http://www.w3.org/TR/2001/REC-SVG-20010904/DTD/svg10.dtd">
<svg version="1.0" xmlns="http://www.w3.org/2000/svg"
 width="1502.000000pt" height="1633.000000pt" viewBox="0 0 1502.000000 1633.000000"
 preserveAspectRatio="xMidYMid meet">
<metadata>
Created by potrace 1.16, written by Peter Selinger 2001-2019
</metadata>
<g transform="translate(0.000000,1633.000000) scale(0.100000,-0.100000)"
fill="#000000" stroke="none">
<path d="M7820 15560 c-30 -4 -82 -17 -115 -30 -66 -24 -72 -25 -165 -15 -50
5 -83 2 -142 -14 -110 -30 -167 -57 -298 -144 -130 -85 -246 -195 -312 -295
-121 -182 -114 -169 -239 -427 -64 -132 -75 -158 -124 -290 -49 -135 -72 -209
-99 -325 -22 -92 -49 -190 -85 -309 -6 -19 -13 -53 -16 -75 -16 -123 -107
-554 -162 -771 -14 -55 -27 -109 -29 -120 -3 -19 -31 -132 -54 -225 -7 -25
-27 -110 -47 -190 -19 -80 -38 -154 -43 -165 -4 -11 -13 -40 -20 -65 -6 -25
-17 -58 -25 -75 -7 -16 -25 -55 -38 -85 -72 -157 -113 -302 -128 -443 -30
-307 -30 -307 -70 -307 -10 0 -42 -9 -71 -20 -29 -11 -66 -20 -82 -20 -24 0
-27 -3 -23 -21 5 -18 -18 -54 -40 -61 -5 -2 -8 -12 -9 -23 0 -11 -5 -29 -11
-40 -6 -11 -8 -26 -5 -34 3 -9 -1 -11 -17 -6 -12 4 -21 2 -21 -4 0 -6 5 -11
11 -11 6 0 8 -7 5 -16 -3 -8 -2 -12 4 -9 12 8 12 3 1 -29 -12 -30 7 -77 29
-73 12 2 15 -11 13 -68 -1 -38 -7 -71 -13 -73 -14 -5 -13 -85 2 -100 8 -8 9
-12 1 -12 -6 0 -13 6 -16 13 -2 6 -8 9 -13 4 -4 -4 -3 -22 4 -40 14 -39 9 -64
-30 -145 -17 -34 -31 -77 -30 -94 1 -42 -76 -201 -95 -194 -7 3 -13 1 -13 -3
0 -5 5 -11 12 -13 8 -3 6 -13 -8 -34 -45 -65 -87 -150 -86 -176 0 -18 -4 -25
-12 -22 -8 3 -16 -4 -19 -15 -4 -15 -1 -18 12 -14 9 4 5 -3 -9 -16 -15 -13
-20 -24 -14 -27 7 -3 8 -19 3 -47 -32 -175 -32 -163 -3 -213 20 -34 25 -53 21
-79 -3 -19 -2 -35 2 -35 7 0 21 -61 35 -144 1 -10 10 -22 19 -28 9 -5 17 -13
17 -19 0 -23 44 -99 57 -99 10 0 12 -7 8 -22 -5 -16 0 -13 14 10 12 18 21 35
21 38 0 3 9 17 20 31 18 23 20 23 20 6 0 -10 -5 -24 -11 -30 -8 -8 -8 -17 0
-32 11 -19 34 -31 28 -13 -1 4 2 9 8 12 5 3 13 -6 16 -20 3 -14 10 -36 15 -50
8 -22 10 -18 16 30 10 82 19 120 28 120 5 0 7 -19 5 -42 -4 -39 -3 -41 11 -24
13 19 14 18 14 -9 0 -28 1 -28 15 -9 14 18 15 16 9 -18 -7 -42 10 -54 21 -15
3 12 10 31 15 42 5 11 16 46 25 78 8 31 20 57 26 57 6 0 7 -5 3 -11 -10 -17
-6 -111 6 -123 14 -14 49 30 50 60 0 12 9 28 20 35 10 8 21 26 24 40 2 15 13
44 24 65 l20 39 -3 -35 c-2 -19 -10 -48 -18 -65 -9 -16 -18 -52 -22 -80 l-7
-50 21 33 c11 17 25 32 30 32 5 0 16 18 25 40 9 22 20 40 26 40 13 0 13 4 -10
-60 -23 -62 -24 -74 -10 -65 6 3 10 2 10 -4 0 -5 -4 -13 -10 -16 -5 -3 -10
-27 -9 -53 l0 -47 20 53 c11 28 25 52 30 52 12 0 11 -42 -2 -76 -10 -27 -10
-28 10 -10 10 9 25 31 31 47 7 16 16 29 21 29 5 0 9 10 10 23 0 12 3 17 5 10
3 -6 1 -28 -5 -47 -12 -46 3 -56 24 -16 18 35 31 38 40 9 8 -24 26 -20 41 9
12 25 24 19 24 -13 0 -30 28 -54 40 -35 7 11 11 11 24 1 12 -10 16 -10 16 -2
0 7 5 9 10 6 6 -3 10 0 10 7 0 8 5 6 11 -4 16 -29 37 -22 31 9 l-5 27 28 -22
29 -23 18 58 c17 54 25 87 27 106 1 12 29 8 35 -5 3 -7 4 3 1 23 -4 25 -1 40
10 49 20 17 42 66 49 110 11 75 20 105 38 137 23 38 32 43 19 11 -22 -54 -25
-75 -11 -71 4 1 8 -13 7 -31 -1 -22 -5 -32 -13 -29 -10 4 -25 -51 -29 -107 -3
-48 -30 -143 -41 -147 -8 -3 -14 -9 -14 -15 0 -5 4 -7 8 -4 12 7 52 -31 52
-49 0 -8 5 -15 10 -15 6 0 10 4 10 10 0 5 4 9 9 7 5 -1 17 7 26 18 15 19 15
17 10 -32 -2 -29 -3 -53 -1 -53 2 0 15 34 27 75 14 43 29 75 37 75 9 0 10 -5
2 -19 -5 -11 -9 -35 -9 -53 1 -25 3 -27 6 -10 3 16 9 22 19 18 11 -4 22 10 40
49 14 30 30 57 35 61 19 11 21 -4 5 -28 -9 -12 -16 -29 -16 -38 1 -23 40 28
40 51 0 10 4 19 9 19 12 0 22 -54 10 -58 -5 -2 -9 -8 -9 -13 0 -6 5 -7 12 -3
8 5 9 2 5 -9 -3 -10 -4 -17 -1 -17 3 0 17 26 31 58 14 31 27 52 30 46 2 -6 -3
-24 -11 -39 -9 -16 -13 -31 -11 -33 6 -6 35 24 35 36 0 13 39 46 46 39 4 -4 1
-13 -6 -22 -7 -9 -10 -18 -6 -22 8 -8 8 -8 34 45 13 24 20 47 18 51 -3 3 4 7
14 7 17 0 17 -3 4 -28 -26 -51 -13 -53 30 -5 l44 49 -12 -36 c-6 -20 -14 -36
-18 -36 -5 0 -8 -4 -8 -9 0 -5 -14 -33 -32 -60 -17 -28 -29 -54 -25 -57 3 -3
13 7 23 23 19 29 78 101 115 140 16 16 29 21 46 17 18 -5 22 -3 17 10 -3 9 -1
16 5 16 6 0 11 -11 11 -25 0 -14 3 -25 6 -25 3 0 23 16 44 36 27 26 41 49 45
75 9 50 19 52 170 40 162 -13 1095 -6 1380 9 127 7 242 13 257 13 30 0 38 23
38 114 0 47 -2 54 -17 49 -59 -16 -192 -20 -1058 -31 -214 -2 -412 -5 -440 -6
-110 -4 -296 13 -302 27 -10 26 21 106 44 115 12 4 100 8 195 7 95 0 205 4
243 10 46 8 286 12 706 12 l637 0 6 23 c3 12 6 78 7 147 0 137 3 136 42 -5 30
-110 71 -210 98 -238 11 -12 17 -27 15 -34 -3 -6 4 -23 15 -36 10 -14 19 -31
19 -39 0 -7 16 -28 35 -47 19 -18 35 -39 35 -47 0 -8 7 -14 15 -14 19 0 35
-31 35 -69 0 -16 9 -50 20 -76 11 -26 20 -59 20 -73 0 -38 35 -92 60 -92 11 0
20 -5 20 -11 0 -6 7 -9 15 -5 9 3 38 -18 80 -59 69 -67 81 -73 39 -18 -16 22
-20 33 -12 33 8 0 19 -5 25 -11 7 -7 12 -2 18 18 3 15 12 32 18 36 9 6 9 10 0
14 -7 2 -13 12 -13 21 0 19 53 -28 78 -70 9 -16 20 -28 25 -28 6 0 20 -12 32
-26 l22 -26 7 25 c5 23 9 25 38 17 l31 -9 -23 24 c-13 14 -18 25 -12 25 7 0
12 -4 12 -8 0 -5 6 -9 14 -9 13 0 13 4 0 29 -18 35 -3 62 27 53 14 -5 17 -2
13 9 -5 14 -3 14 22 1 41 -21 41 -11 0 26 -20 17 -34 34 -32 37 3 3 12 -1 21
-8 9 -8 15 -9 15 -2 0 7 13 6 35 -4 49 -20 44 -2 -7 23 -24 12 -36 22 -27 22
9 1 37 -10 62 -23 25 -14 54 -22 64 -20 24 7 74 -43 55 -55 -9 -5 -3 -15 18
-36 16 -16 33 -25 37 -21 4 4 0 12 -10 17 -9 6 -17 15 -17 21 0 6 9 3 20 -7
11 -10 20 -24 20 -30 0 -18 30 -27 46 -14 7 6 10 18 7 27 -4 9 5 4 19 -13 l27
-30 -19 57 c-10 31 -25 67 -33 80 -8 12 -18 52 -22 88 -4 36 -13 75 -21 87 -8
12 -14 39 -15 60 0 21 -3 32 -6 26 -8 -22 -19 -14 -42 32 -12 25 -27 45 -32
45 -5 0 -9 5 -9 11 0 6 -13 30 -29 54 -16 24 -32 53 -36 64 -7 24 3 106 13 97
3 -3 14 1 24 11 17 15 18 15 18 -1 0 -10 6 -24 14 -32 13 -12 14 -11 12 8 -1
13 -8 33 -14 45 -15 27 -15 43 -2 43 17 0 141 122 171 168 15 25 25 51 22 60
-4 9 -2 13 4 9 6 -4 13 0 16 7 3 8 1 16 -5 18 -14 5 5 64 20 61 5 -1 12 9 15
22 3 19 0 25 -12 23 -11 -2 -17 9 -22 43 -7 49 -45 161 -65 194 -7 11 -15 35
-19 52 -4 18 -12 36 -18 40 -14 10 -32 37 -52 79 -8 17 -21 34 -30 37 -8 4
-15 15 -15 25 0 21 -46 69 -56 59 -4 -4 4 -15 17 -26 13 -11 20 -20 14 -20 -5
0 -30 17 -55 39 -24 22 -40 40 -34 40 5 0 15 -5 22 -12 6 -6 15 -9 18 -5 13
12 -6 37 -41 54 -19 9 -35 21 -35 26 0 10 37 0 69 -20 17 -11 22 -11 19 -2 -2
7 -20 20 -38 31 -19 10 -58 40 -86 66 -40 38 -53 57 -57 88 -19 137 -49 219
-79 219 -24 0 -30 60 -48 490 -7 160 -16 259 -30 325 -11 52 -25 122 -30 155
-17 99 -49 181 -139 365 -105 213 -121 274 -125 465 -4 165 -15 228 -69 393
-39 121 -40 124 -31 210 16 158 -2 517 -32 652 -8 35 -22 98 -30 140 -15 69
-41 144 -64 180 -6 8 -28 53 -51 100 -22 47 -45 92 -50 100 -5 8 -21 40 -37
70 -15 30 -30 57 -34 58 -5 2 -8 10 -8 18 0 13 -227 247 -300 310 -101 86
-142 116 -176 130 -21 9 -57 29 -81 45 -23 16 -45 29 -50 29 -5 0 -25 9 -45
20 -84 45 -289 76 -398 60z m-248 -656 c13 3 17 3 10 0 -10 -5 -10 -9 -1 -20
15 -18 29 -18 29 1 0 9 6 12 18 8 15 -6 14 -3 -3 16 l-20 23 40 -23 c38 -22
39 -22 22 -2 l-19 21 44 -5 c24 -3 45 -9 48 -13 3 -4 30 -11 60 -15 30 -4 64
-12 75 -18 18 -9 18 -7 -2 15 -27 29 -29 43 -6 34 36 -14 103 -17 103 -5 0 11
27 10 191 -6 69 -7 148 -44 177 -84 12 -17 28 -31 34 -31 13 0 117 -90 173
-150 22 -24 49 -53 61 -65 11 -12 28 -39 38 -59 10 -21 40 -60 67 -87 27 -27
49 -56 49 -64 0 -24 -14 -17 -35 17 -11 20 -20 27 -23 19 -2 -7 -1 -16 4 -20
5 -3 14 -15 20 -26 70 -128 74 -140 56 -159 -16 -16 -15 -19 9 -39 17 -15 25
-32 25 -53 -1 -22 3 -30 12 -27 7 3 12 2 10 -3 -2 -5 8 -26 21 -47 13 -21 21
-41 17 -44 -3 -3 0 -15 6 -27 10 -19 19 -141 34 -513 6 -136 18 -173 26 -83 6
56 14 72 28 50 8 -12 10 -9 10 10 -1 14 -7 34 -15 44 -32 42 -2 126 45 126 9
0 21 5 27 11 9 9 13 3 18 -24 4 -19 17 -57 30 -83 l24 -49 11 29 c7 21 8 38 1
55 -6 14 -12 48 -15 75 -6 60 -36 97 -61 76 -18 -15 -21 -13 -30 23 -5 17 -3
27 4 27 6 0 11 14 11 30 0 35 8 37 44 9 74 -58 92 -186 67 -484 -6 -77 -18
-167 -26 -200 -7 -33 -16 -71 -18 -85 -2 -14 -8 -33 -12 -42 -5 -13 4 -22 42
-41 63 -33 95 -68 130 -142 24 -51 28 -73 28 -145 0 -83 -26 -180 -49 -180 -4
0 -5 8 -1 17 48 127 22 308 -58 395 -42 45 -132 84 -158 67 -10 -6 -8 -9 9 -9
32 0 27 -14 -16 -44 -24 -17 -51 -26 -75 -26 l-37 0 0 -59 c0 -214 -92 -439
-254 -624 -51 -58 -57 -73 -137 -355 -23 -81 -32 -252 -17 -337 4 -27 10 -90
12 -140 3 -82 1 -96 -25 -153 -29 -63 -41 -162 -19 -162 6 0 10 -5 10 -11 0
-6 -7 -9 -15 -5 -9 3 -15 0 -15 -9 0 -8 5 -15 11 -15 8 0 8 -4 1 -12 -7 -9 -7
-27 0 -58 5 -25 10 -57 10 -72 1 -16 4 -28 9 -28 4 0 5 -16 2 -35 -4 -25 -2
-35 7 -35 7 0 10 -3 7 -7 -4 -3 1 -12 11 -19 15 -12 14 -13 -10 -14 -15 0 -29
-4 -32 -9 -3 -5 34 -14 83 -20 49 -6 101 -16 117 -21 29 -10 30 -13 37 -95 l2
-30 -170 2 c-93 1 -232 7 -308 14 -78 7 -189 9 -257 6 -86 -5 -120 -3 -120 5
0 15 -254 4 -410 -17 -63 -9 -146 -20 -185 -26 -180 -24 -163 -25 -170 7 -3
16 -17 54 -30 84 -13 30 -27 66 -31 80 -6 22 -5 23 10 11 9 -7 16 -9 16 -3 0
5 -7 15 -15 22 -28 24 -16 57 18 51 5 -1 5 8 2 20 -6 18 -4 20 14 14 17 -5 20
-3 14 11 -5 14 -2 16 14 12 11 -3 27 -2 36 3 10 6 17 4 21 -6 3 -8 10 -15 15
-15 6 0 8 7 5 15 -8 20 5 19 30 -2 21 -18 21 -18 3 4 -11 12 -14 24 -9 27 6 3
21 -11 34 -31 16 -27 24 -33 26 -21 2 9 10 19 18 22 11 4 14 1 9 -13 -5 -18
-2 -19 34 -16 52 5 61 11 61 40 0 13 5 27 11 31 8 4 8 9 0 17 -15 15 -14 27 4
27 8 0 15 4 15 9 0 5 -7 16 -15 25 -20 19 -19 30 1 22 13 -5 14 -4 5 7 -6 8
-11 25 -11 38 -2 72 -9 122 -20 129 -7 4 -9 13 -5 20 6 9 9 9 15 1 5 -9 11 -7
21 5 11 14 11 16 0 10 -8 -5 -17 -3 -22 5 -13 21 -11 33 5 20 11 -9 15 -6 20
14 3 13 18 32 32 42 22 14 27 14 35 2 7 -12 9 -11 9 3 0 10 11 19 30 23 17 4
27 11 24 16 -3 6 3 13 15 16 22 6 38 44 26 62 -8 15 8 14 22 0 9 -9 14 -5 18
14 4 14 13 28 21 31 8 3 14 14 12 23 -2 12 4 19 20 21 18 3 22 8 16 25 -6 20
-5 21 11 7 16 -14 17 -13 10 9 -6 21 -5 22 17 16 16 -4 19 -3 9 3 -11 8 -10
12 7 21 12 6 25 10 29 10 15 -4 48 15 66 38 10 13 26 23 36 23 10 0 25 8 34
18 15 16 10 17 -86 18 -103 0 -140 10 -207 54 -14 9 -41 23 -60 30 -38 15 -93
69 -140 141 -25 38 -35 46 -53 42 -21 -5 -21 -5 -3 9 18 15 18 15 -2 20 -14 4
-22 1 -25 -11 -3 -13 -5 -13 -12 4 -14 34 -67 95 -83 95 -7 0 -12 5 -10 11 2
6 -13 29 -34 51 -33 36 -90 117 -142 201 -9 15 -14 31 -12 36 3 5 -1 14 -9 21
-8 7 -15 20 -15 29 0 9 -4 21 -9 27 -20 20 -48 109 -41 129 4 11 4 27 -1 36
-9 18 -1 33 22 41 12 5 15 14 12 32 -4 18 0 28 11 32 19 7 12 24 -10 24 -8 0
-12 -4 -9 -10 14 -22 -7 -7 -50 36 -25 25 -45 41 -45 35 0 -7 -5 -9 -10 -6 -8
5 -8 11 0 20 8 10 8 16 -2 22 -19 11 -61 112 -54 129 3 7 1 16 -4 19 -6 4 -10
17 -10 30 0 13 -5 27 -10 30 -7 4 -7 12 0 24 5 10 7 20 5 23 -3 3 -6 23 -7 46
-1 23 -5 42 -10 42 -13 0 -9 28 5 33 9 4 9 8 1 14 -7 5 -11 38 -9 88 3 89 22
140 61 157 13 6 24 16 24 22 0 6 5 5 12 -2 7 -7 24 -12 39 -12 15 0 32 -7 39
-15 7 -8 17 -15 22 -15 6 0 27 -13 47 -28 44 -35 92 -46 117 -27 13 9 23 10
31 3 9 -7 13 -7 13 2 0 7 7 10 16 6 27 -10 10 18 -19 32 -37 18 -34 30 11 34
23 2 36 8 35 16 -2 6 3 12 10 12 7 0 19 -6 26 -12 11 -11 13 -10 8 4 -4 10 1
18 13 21 11 3 25 18 32 34 7 15 13 30 15 32 4 7 53 -29 53 -39 0 -6 -15 -16
-32 -24 l-33 -13 45 4 c29 3 60 -1 84 -11 22 -9 41 -14 43 -12 2 2 -7 26 -20
53 -35 67 -111 133 -154 133 -9 0 8 -17 37 -37 61 -44 83 -78 24 -39 -56 36
-118 56 -183 57 l-56 1 40 14 c44 15 56 15 -138 0 -21 -1 -43 -9 -49 -17 -8
-11 -9 -10 -4 4 6 19 -29 66 -40 54 -4 -3 -13 1 -22 9 -26 27 -4 64 48 81 54
19 246 12 325 -11 28 -8 44 -15 38 -15 -7 -1 -13 -6 -13 -12 0 -6 7 -9 15 -6
8 4 17 2 21 -4 3 -6 12 -8 19 -5 17 6 86 -58 119 -111 15 -24 34 -43 44 -43 9
0 23 -9 30 -20 20 -32 32 -23 32 23 0 33 -6 49 -25 67 -14 13 -25 31 -25 41 0
9 -7 22 -15 29 -8 7 -12 17 -9 22 10 16 -6 58 -21 58 -8 0 -15 6 -15 14 0 20
-58 60 -106 74 -116 34 -390 59 -421 39 -7 -5 -13 -4 -13 2 0 5 5 13 10 16 6
3 10 15 10 26 0 10 5 19 11 19 6 0 9 6 6 13 -3 7 4 30 14 51 10 21 16 43 13
47 -3 5 2 16 10 24 8 9 13 22 9 30 -3 9 0 22 7 30 7 8 10 15 7 15 -3 0 -1 14
5 31 6 17 16 28 23 25 13 -4 13 53 0 74 -3 5 1 10 9 10 19 0 31 37 17 54 -6 7
-8 16 -4 20 7 7 8 10 19 61 4 17 11 35 16 41 13 17 58 108 58 117 0 5 9 22 21
38 11 16 18 33 15 38 -3 5 3 20 15 32 l20 24 -7 -25 c-6 -22 -5 -23 10 -11 9
8 15 20 12 28 -3 7 1 13 9 13 8 0 15 5 15 11 0 5 5 7 10 4 7 -4 9 2 5 17 -4
17 0 32 15 49 l21 24 -6 -25 c-5 -23 -4 -24 7 -6 7 11 23 30 34 42 12 13 19
26 15 30 -3 4 2 4 12 1 10 -4 27 -1 37 5 16 10 22 9 33 -6 12 -16 14 -16 26
-2 10 12 10 16 2 16 -7 0 -9 5 -6 11 5 7 13 5 25 -6 12 -11 27 -15 42 -11z
m2365 -4246 c41 -44 123 -152 123 -164 0 -3 11 -29 25 -56 14 -27 22 -54 19
-60 -4 -5 -1 -22 6 -36 33 -71 34 -72 22 -84 -16 -16 -15 -29 1 -26 12 3 13
-10 3 -70 -8 -50 -56 -130 -100 -168 -49 -42 -59 -37 -17 8 17 18 31 36 31 41
0 15 -16 6 -43 -23 -29 -30 -60 -43 -37 -15 10 12 10 18 0 30 -6 8 -8 20 -4
26 5 9 10 8 18 -4 10 -12 12 -9 12 21 0 21 3 46 8 57 6 15 5 17 -3 5 -5 -8
-13 -12 -16 -8 -10 10 5 49 15 43 14 -9 10 128 -5 187 -8 28 -12 54 -10 58 5
8 -20 81 -40 120 -8 15 -12 30 -9 33 7 7 -22 64 -35 69 -13 4 -26 58 -14 58 5
0 27 -19 50 -42z m-1582 -277 c132 -6 283 -17 335 -24 52 -6 103 -11 112 -10
18 3 34 -30 22 -48 -4 -8 -9 -7 -15 2 -5 8 -9 9 -9 3 0 -6 9 -19 20 -29 30
-27 24 -42 -17 -50 -39 -7 -494 -7 -548 0 -16 2 -139 10 -272 16 -220 12 -256
11 -405 -6 -90 -10 -194 -22 -233 -26 -148 -17 -303 -8 -266 15 11 7 10 54 -3
74 -4 7 -2 14 6 17 13 5 202 34 393 61 144 20 392 31 530 22 61 -3 218 -11
350 -17z m-245 -306 c85 -3 178 -7 205 -10 28 -2 167 -7 310 -11 143 -3 264
-8 268 -11 4 -3 5 -13 2 -24 -4 -10 -3 -19 2 -19 18 0 8 -62 -12 -73 -26 -15
-318 -17 -800 -6 -341 8 -383 7 -540 -11 -189 -22 -438 -31 -454 -15 -5 6 -13
24 -16 40 -5 22 -4 26 3 16 8 -11 11 -5 14 24 4 46 17 52 118 54 74 2 292 24
390 40 97 16 145 19 255 15 55 -2 170 -6 255 -9z"/>
<path d="M8215 13910 c-97 -11 -155 -28 -155 -45 0 -8 -4 -15 -10 -15 -5 0
-10 -11 -10 -25 0 -38 28 -46 91 -26 30 10 86 21 124 25 39 3 96 12 129 19 40
9 75 10 110 4 28 -4 62 -10 76 -11 14 -2 42 -11 62 -20 43 -18 76 -12 57 10
-21 26 -104 77 -121 76 -10 0 -18 3 -18 7 0 9 -86 6 -112 -4 -9 -4 -21 -4 -26
-1 -17 10 -127 14 -197 6z"/>
<path d="M8195 13646 c-41 -18 -75 -50 -75 -69 0 -9 -12 -24 -27 -34 -59 -37
-53 -50 21 -46 31 1 56 -1 56 -6 0 -5 11 -6 25 -3 15 2 25 0 25 -7 0 -9 6 -8
23 1 26 15 30 16 117 22 36 3 86 12 112 20 26 8 63 12 81 9 51 -8 58 14 16 49
-50 42 -87 60 -112 53 -14 -4 -18 -3 -9 3 7 5 -26 8 -87 8 -54 -1 -94 2 -88 6
21 13 -47 8 -78 -6z"/>
<path d="M7352 12933 c-30 -26 -31 -30 -19 -53 45 -83 64 -104 98 -108 13 -1
33 -6 44 -12 115 -55 187 -70 244 -51 40 13 42 16 24 24 -12 5 -23 21 -26 36
-4 18 -23 37 -66 63 -53 32 -61 35 -73 21 -9 -12 -24 -14 -63 -9 -27 3 -51 10
-53 16 -2 5 -10 10 -17 10 -8 0 -23 20 -34 45 -11 25 -21 45 -23 45 -2 0 -18
-12 -36 -27z"/>
<path d="M8261 12909 c6 -13 22 -34 35 -48 13 -14 24 -30 24 -34 0 -19 53
-112 77 -136 14 -14 32 -41 40 -59 12 -30 16 -32 31 -20 36 29 50 47 48 61 -3
20 -56 97 -67 97 -5 0 -9 7 -9 15 0 9 -8 19 -17 22 -21 8 -56 43 -50 50 13 12
-49 54 -101 68 -22 6 -23 5 -11 -16z"/>
<path d="M7181 12723 c3 -20 -2 -24 -15 -14 -37 31 -91 -52 -75 -114 7 -24 20
-36 67 -57 32 -16 62 -28 65 -28 8 0 50 -40 80 -76 10 -12 20 -31 22 -43 3
-11 7 -29 9 -39 2 -10 17 -38 33 -63 15 -24 33 -53 39 -64 6 -11 18 -20 26
-20 9 0 22 -5 29 -11 8 -6 25 -11 38 -12 13 0 34 -11 47 -23 15 -14 30 -20 45
-16 12 3 32 -1 45 -9 19 -13 27 -13 46 -3 13 7 37 14 53 14 17 1 38 5 48 9 9
5 26 6 36 3 13 -3 18 0 15 8 -5 13 51 29 67 19 5 -3 6 2 3 10 -7 18 -34 22
-34 6 0 -5 -9 -10 -20 -10 -11 0 -20 5 -20 10 0 16 -51 61 -61 54 -14 -8 -11
-24 4 -19 16 6 31 -5 46 -33 12 -22 12 -22 -55 -18 -86 6 -122 36 -45 38 26 1
29 3 19 16 -8 9 -14 10 -16 3 -7 -20 -122 -10 -122 10 0 5 8 9 18 10 11 0 12
2 4 6 -7 3 -19 -1 -27 -7 -13 -11 -14 -8 -9 19 4 19 2 31 -4 31 -5 0 -8 -10
-5 -21 6 -20 3 -21 -23 -15 -16 4 -30 12 -32 17 -2 5 -13 9 -25 9 -20 1 -21 2
-5 14 13 9 14 16 6 24 -6 6 -8 15 -4 19 4 4 11 1 16 -7 6 -10 12 -12 19 -5 17
17 -17 59 -34 45 -21 -17 -47 29 -43 76 3 41 23 56 33 25 3 -10 13 -22 22 -25
18 -7 46 12 37 25 -3 5 11 9 30 9 20 0 36 -5 36 -10 0 -6 14 -4 31 6 17 8 47
14 67 13 21 -2 62 2 92 8 30 7 91 11 135 9 54 -2 86 2 100 11 25 17 54 17 61
-1 4 -12 10 -11 35 1 39 20 54 7 39 -33 -6 -16 -19 -37 -27 -46 -24 -26 -7
-22 40 11 23 15 52 32 65 35 31 10 90 48 96 62 12 30 -11 33 -99 15 -90 -17
-279 -22 -303 -7 -7 4 -16 5 -21 2 -5 -3 -31 -6 -57 -7 -27 -1 -57 -6 -66 -11
-11 -5 -26 -5 -38 2 -12 6 -38 13 -58 14 -20 2 -60 7 -89 11 -28 4 -60 4 -70
0 -31 -12 -176 -5 -193 10 -9 8 -32 16 -53 18 -21 2 -43 9 -49 15 -18 18 -28
15 -21 -5 6 -17 5 -17 -13 -2 -10 9 -27 19 -36 22 -10 4 -18 11 -18 17 0 6 5
8 12 4 7 -5 9 -2 6 8 -4 8 2 20 13 27 11 6 17 16 14 21 -7 12 -26 13 -24 3z"/>
<path d="M8870 9326 c-11 -11 -142 -26 -370 -43 -258 -19 -842 -23 -1232 -9
l-216 8 -4 -70 c-4 -83 -4 -83 102 -80 49 1 54 2 23 5 -46 4 -52 15 -27 48 14
19 15 19 21 -3 4 -18 8 -20 19 -11 11 9 14 8 14 -6 0 -10 6 -15 18 -13 9 2 16
9 15 16 -3 13 48 9 91 -8 14 -5 26 -7 26 -4 0 4 7 1 16 -7 10 -8 18 -9 22 -3
9 13 62 16 77 4 14 -12 74 4 88 22 6 9 7 5 4 -10 -9 -39 17 -19 31 24 19 56
31 64 25 14 l-6 -42 54 8 c30 4 62 8 72 8 9 0 17 3 17 6 0 3 13 6 28 7 15 1
40 4 56 7 32 6 58 -2 50 -15 -3 -5 0 -9 5 -9 6 0 11 6 11 14 0 21 20 30 33 17
8 -8 8 -11 -1 -11 -7 0 -12 -5 -12 -10 0 -11 39 8 53 25 5 6 6 -1 2 -15 -5
-23 -5 -23 8 -7 18 21 27 22 27 0 0 -14 2 -14 20 2 11 10 18 20 15 23 -6 6 15
32 26 32 5 0 4 -12 -1 -26 -13 -34 -13 -34 15 -34 14 0 25 4 25 9 0 11 58 -6
74 -20 17 -16 29 -10 15 7 -11 14 -10 16 6 13 11 -2 25 0 32 4 6 4 18 0 26 -8
9 -8 20 -15 25 -15 10 0 10 30 -1 47 -11 17 9 25 22 9 9 -11 9 -16 0 -21 -8
-6 -8 -10 2 -16 8 -4 20 -3 28 4 12 10 14 9 8 -5 -4 -12 -2 -18 8 -18 8 0 15
8 15 17 0 15 2 15 14 -2 12 -17 15 -18 30 -3 13 13 23 15 48 7 41 -11 51 -11
44 0 -3 5 39 8 97 7 80 -1 101 2 99 12 -1 8 2 11 8 7 6 -3 7 -12 3 -18 -4 -7
1 -6 10 2 19 15 33 9 22 -8 -3 -6 -16 -11 -27 -11 -12 0 -18 -3 -15 -6 9 -10
160 -5 170 5 4 4 7 41 5 80 -2 40 -5 70 -8 67z"/>
</g>
</svg>
